<svg width="162" height="142" viewBox="0 0 162 142" fill="none" xmlns="http://www.w3.org/2000/svg">
<path d="M42.1553 141.148C38.7945 140.115 36.9639 136.452 39.4858 133.688C39.8711 133.267 41.5378 132.174 41.9968 132.174H47.8467L47.6909 100.465C46.7893 99.0611 44.6198 101.318 43.516 101.904C31.0074 108.553 19.835 102.393 12.9305 92.0664C10.7965 88.874 6.19258 83.0218 10.5534 79.9974C11.6299 79.253 17.0645 77.4358 18.2803 77.4358H26.0292L24.4144 73.5817C11.6053 75.0034 1.0613 65.8373 0.0995248 53.9494C-0.138186 51.0207 0.0230201 43.9535 0.875502 41.2316C1.26076 40.0012 2.77446 38.5537 4.12149 38.321C9.19539 37.4447 16.1601 41.3324 20.0126 44.2327L20.5072 39.7427C9.59158 34.2472 6.38111 22.5738 11.9468 12.2213C13.19 9.90777 18.9197 1.99279 20.9799 0.726188C26.0756 -2.40672 31.2069 5.38419 32.9365 9.12971C40.0815 24.6004 30.8872 31.8122 29.1905 45.8819C27.2915 61.6239 34.4502 78.2604 46.8904 88.6569C50.0189 91.2702 53.7649 92.9995 56.224 96.2797H76.3037V78.0329L59.2186 86.2503C56.0081 87.5686 52.5135 85.0664 52.6118 81.8198L56.6529 58.809L38.9858 42.2914C37.0131 39.7427 38.2836 36.2841 41.4503 35.3458L65.8198 31.9234C69.8281 23.9748 73.2271 15.6669 77.5988 7.91998C79.5306 6.18809 83.8066 6.40522 85.1673 8.77816L96.2742 31.9234L120.644 35.3458C123.81 36.2841 125.081 39.7427 123.108 42.2914L105.441 58.809L109.482 81.8198C109.581 85.0664 106.086 87.5686 102.875 86.2503L85.7903 78.0329V96.2797H105.87C107.788 93.1081 111.485 91.6424 114.398 89.391C126.933 79.7028 134.24 63.6324 133.221 48.2729C132.21 33.0814 121.392 24.2436 129.69 8.13452C131.442 4.73279 136.223 -2.00864 140.926 0.604698C142.898 1.7007 148.125 8.70062 149.407 10.828C155.789 21.4261 153.399 33.9887 141.584 39.7427L142.081 44.2301C148.087 39.7298 162.639 32.5489 161.669 45.9L162 46.6212V54.6964C161.366 57.6018 160.708 60.3367 159.208 62.9733C154.994 70.379 146.912 74.3779 138.018 73.592L136.07 77.5806C136.281 78.0562 136.8 77.428 136.86 77.428H143.499C145.161 77.428 150.125 79.0074 151.535 79.9974C155.084 82.4867 153.24 85.4619 151.617 88.3984C145.609 99.2782 134.969 108.506 121.122 103.083C119.756 102.548 116.081 99.971 115.6 99.9038C115.04 99.8236 114.698 100.028 114.406 100.465L114.247 132.169H120.097C120.556 132.169 122.223 133.262 122.608 133.683C125.13 136.447 123.299 140.109 119.939 141.143H42.1553V141.148ZM93.908 121.901C96.5911 119.363 95.1239 114.764 91.3014 114.253C87.7248 113.772 74.3774 113.772 70.8008 114.253C65.481 114.966 65.4674 122.431 71.1178 123.173C74.9867 123.682 86.7084 123.613 90.6975 123.202C91.6702 123.101 93.2222 122.553 93.9107 121.901H93.908Z" fill="#FCFF00"/>
</svg>
