<svg width="164" height="227" viewBox="0 0 164 227" fill="none" xmlns="http://www.w3.org/2000/svg">
<path d="M117.632 117.01V10.9711L108.487 0H46.4231H43.8779H43.7548H9.76647L0 10.9711V117.01L9.13825 127.981H42.0515L32.9068 117.01V29.2541H43.7548H46.4231H84.7183V117.01L93.863 127.981H126.77L117.632 117.01Z" fill="#1A1A1A"/>
<path d="M153.083 35.2642H120.169L129.314 46.2288V133.991H118.466H115.798H77.5027V46.2288L68.3579 35.2642H35.4512L44.5894 46.2288V152.274L53.7342 163.245H115.798H118.343H118.466H152.454L162.221 152.274V46.2288L153.083 35.2642Z" fill="#1A1A1A"/>
<path d="M23.9238 169.119H40.6978V196.178H23.9238V169.119ZM34.5193 189.954V175.343H30.1542V189.954H34.5193Z" fill="#1A1A1A"/>
<path d="M59.3232 169.119L63.384 172.215V192.123L58.1251 196.145L58.0862 196.184H51.9401L51.9012 196.145L46.6035 192.123V169.126H48.7666L52.8274 172.221V189.073L54.9905 190.699L57.1925 189.073V169.126H59.3168L59.3232 169.119Z" fill="#1A1A1A"/>
<path d="M71.7452 169.119L75.8059 172.215V196.184H69.582V169.126H71.7452V169.119Z" fill="#1A1A1A"/>
<path d="M95.055 169.119L99.1158 172.215V196.184H82.3418V169.126H95.0615L95.055 169.119ZM92.9308 189.954V175.343H88.5657V189.954H92.9308Z" fill="#1A1A1A"/>
<path d="M120.792 172.215V196.184H114.568V185.744H110.197V196.184H104.012V169.126H116.725L120.786 172.221L120.792 172.215ZM114.568 179.559V175.343H110.197V179.559H114.568Z" fill="#1A1A1A"/>
<path d="M138.149 169.119L142.21 172.215V196.184H125.436V169.126H138.155L138.149 169.119ZM136.025 189.954V175.343H131.653V189.954H136.025Z" fill="#1A1A1A"/>
<path d="M158.161 175.343H151.665V179.559H158.504V185.744H151.665V189.96H158.161L162.221 193.05V196.184H145.447V169.126H162.221V172.26L158.161 175.35V175.343Z" fill="#1A1A1A"/>
<path d="M11.9294 196.178V175.343H7.55784V193.089L3.49711 196.184H1.33398V169.126H18.108V193.095L14.0472 196.191H11.923L11.9294 196.178Z" fill="#1A1A1A"/>
<path d="M136.023 226.714V205.879H131.652V223.625L127.591 226.721H125.428V199.662H142.202V223.631L138.141 226.727H136.017L136.023 226.714Z" fill="#1A1A1A"/>
<path d="M51.9984 199.649L56.0591 202.745V226.714H39.2852V199.656H41.4483L45.509 202.751V220.497H49.8806V199.662H52.0049L51.9984 199.649Z" fill="#1A1A1A"/>
<path d="M73.2803 199.649L77.341 202.745V213.645L74.9447 215.503V215.542L77.341 217.362V226.714H71.156V220.452L66.7844 217.129V226.714H60.5605V199.656H73.2803V199.649ZM71.156 212.641V205.88H66.7844V209.319L71.156 212.641Z" fill="#1A1A1A"/>
<path d="M95.0724 199.649L99.1331 202.745V212.408L96.7369 214.221V214.299L99.1331 216.119V226.708H82.3203V199.649H95.0789H95.0724ZM92.9093 209.319V205.88H88.5377V212.641L92.9093 209.319ZM92.9093 220.49V217.168L88.5377 220.49H92.9093Z" fill="#1A1A1A"/>
<path d="M120.81 202.745V226.714H114.586V216.274H110.214V226.714H104.029V199.656H116.749L120.81 202.751V202.745ZM114.586 210.089V205.873H110.214V210.089H114.586Z" fill="#1A1A1A"/>
<path d="M163.601 202.745V226.714H157.377V216.274H153.005V226.714H146.82V199.656H159.54L163.601 202.751V202.745ZM157.377 210.089V205.873H153.005V210.089H157.377Z" fill="#1A1A1A"/>
</svg>
