<svg width="157" height="158" viewBox="0 0 157 158" fill="none" xmlns="http://www.w3.org/2000/svg">
<path d="M110.084 157.156H46.9155L60.7106 129.368L95.5364 129.202L96.5595 129.713L110.084 157.156Z" fill="#FCFF00"/>
<path d="M157 156.848V157.156H120.509L106.711 129.221H133.542C141.558 138.251 148.917 147.925 157 156.848Z" fill="#FCFF00"/>
<path d="M0 157.156L23.4578 129.221H50.2892L36.491 157.156H0Z" fill="#FCFF00"/>
<path d="M50.9038 120.011H27.9068V83.1715H18.708L41.5974 55.8731C42.427 55.7316 49.4874 65.3684 50.9068 66.4418V120.011H50.9038Z" fill="#FCFF00"/>
<path d="M110.392 27.606H96.8976V120.011H60.1024V27.606H46.6084L78.6106 0L110.392 27.606Z" fill="#FCFF00"/>
<path d="M138.295 83.1715H129.097V120.011H106.1V66.4418C107.519 65.3684 114.579 55.7316 115.409 55.8731L138.298 83.1715H138.295Z" fill="#FCFF00"/>
</svg>
